<svg xmlns="http://www.w3.org/2000/svg" version="1.1" xmlns:xlink="http://www.w3.org/1999/xlink" xmlns:svgjs="http://svgjs.dev/svgjs" width="2000" height="1247" viewBox="0 0 2000 1247"><g transform="matrix(1,0,0,1,-1.2121212121212466,0.504858299595071)"><svg viewBox="0 0 396 247" data-background-color="#ffffff" preserveAspectRatio="xMidYMid meet" height="1247" width="2000" xmlns="http://www.w3.org/2000/svg" xmlns:xlink="http://www.w3.org/1999/xlink"><g id="tight-bounds" transform="matrix(1,0,0,1,0.2400000000000091,-0.09999999999999432)"><svg viewBox="0 0 395.52 247.2" height="247.2" width="395.52"><g><svg></svg></g><g><svg viewBox="0 0 395.52 247.2" height="247.2" width="395.52"><g transform="matrix(1,0,0,1,75.54432,104.97114562536245)"><svg viewBox="0 0 244.43135999999998 37.25770874927508" height="37.25770874927508" width="244.43135999999998"><g><svg viewBox="0 0 244.43135999999998 37.25770874927508" height="37.25770874927508" width="244.43135999999998"><g><svg viewBox="0 0 244.43135999999998 37.25770874927508" height="37.25770874927508" width="244.43135999999998"><g><svg viewBox="0 0 244.43135999999998 37.25770874927508" height="37.25770874927508" width="244.43135999999998"><g id="textblocktransform"><svg viewBox="0 0 244.43135999999998 37.25770874927508" height="37.25770874927508" width="244.43135999999998" id="textblock"><g><svg viewBox="0 0 244.43135999999998 37.25770874927508" height="37.25770874927508" width="244.43135999999998"><g transform="matrix(1,0,0,1,0,0)"><svg width="244.43135999999998" viewBox="0.2 -38.01 252.56 38.5" height="37.25770874927508" data-palette-color="#000000"><path d="M12.79 0L3.96 0 3.96-28.37Q3.96-33.06 6.76-35.53 9.57-38.01 14.33-38.01L14.33-38.01Q15.43-38.01 16.41-37.85 17.38-37.7 18.29-37.48L18.29-37.48 18.33-30.74Q17.92-30.86 17.46-30.91 16.99-30.96 16.36-30.96L16.36-30.96Q14.65-30.96 13.72-30.29 12.79-29.61 12.79-28.37L12.79-28.37 12.79 0ZM17.77-26.42L17.77-20.07 0.2-20.07 0.2-26.42 17.77-26.42ZM29.34-19.36L29.34 0 20.55 0 20.55-26.42 28.76-26.42 29.34-19.36ZM36.96-26.61L36.81-18.02Q36.3-18.07 35.43-18.14 34.57-18.21 34.03-18.21L34.03-18.21Q32.18-18.21 31.02-17.74 29.86-17.26 29.34-16.26 28.83-15.26 28.85-13.62L28.85-13.62 27.32-14.94Q27.32-18.53 28.22-21.23 29.12-23.93 30.77-25.42 32.42-26.9 34.64-26.9L34.64-26.9Q35.25-26.9 35.87-26.84 36.5-26.78 36.96-26.61L36.96-26.61ZM52.68 0.49L52.68 0.49Q48.29 0.49 45.2-1.29 42.11-3.08 40.5-5.99 38.89-8.91 38.89-12.3L38.89-12.3 38.89-13.21Q38.89-16.99 40.3-20.1 41.72-23.22 44.58-25.06 47.43-26.9 51.75-26.9L51.75-26.9Q55.59-26.9 58.3-25.33 61.01-23.75 62.46-20.84 63.91-17.92 63.91-13.87L63.91-13.87 63.91-10.18 42.18-10.18 42.18-15.82 55.32-15.82 55.32-16.53Q55.34-17.68 54.93-18.41 54.51-19.14 53.69-19.48 52.88-19.82 51.68-19.82L51.68-19.82Q49.97-19.82 49.12-18.87 48.26-17.92 47.97-16.42 47.68-14.92 47.68-13.21L47.68-13.21 47.68-12.3Q47.68-10.55 48.33-9.27 48.99-7.98 50.25-7.3 51.51-6.62 53.27-6.62L53.27-6.62Q54.88-6.62 56.5-7.18 58.12-7.74 59.25-9.16L59.25-9.16 63.2-4.1Q61.98-2.39 59.26-0.95 56.54 0.49 52.68 0.49ZM80.07 0.49L80.07 0.49Q75.68 0.49 72.59-1.29 69.5-3.08 67.89-5.99 66.28-8.91 66.28-12.3L66.28-12.3 66.28-13.21Q66.28-16.99 67.69-20.1 69.11-23.22 71.97-25.06 74.82-26.9 79.14-26.9L79.14-26.9Q82.98-26.9 85.69-25.33 88.4-23.75 89.85-20.84 91.3-17.92 91.3-13.87L91.3-13.87 91.3-10.18 69.57-10.18 69.57-15.82 82.71-15.82 82.71-16.53Q82.73-17.68 82.32-18.41 81.9-19.14 81.08-19.48 80.27-19.82 79.07-19.82L79.07-19.82Q77.36-19.82 76.51-18.87 75.65-17.92 75.36-16.42 75.07-14.92 75.07-13.21L75.07-13.21 75.07-12.3Q75.07-10.55 75.72-9.27 76.38-7.98 77.64-7.3 78.9-6.62 80.66-6.62L80.66-6.62Q82.27-6.62 83.89-7.18 85.51-7.74 86.64-9.16L86.64-9.16 90.59-4.1Q89.37-2.39 86.65-0.95 83.93 0.49 80.07 0.49ZM103.29-20.78L103.29 0 94.47 0 94.47-26.42 102.72-26.42 103.29-20.78ZM102.21-14.01L100.23-13.84Q100.21-17.65 101.36-20.59 102.5-23.54 104.79-25.22 107.07-26.9 110.41-26.9L110.41-26.9Q113.83-26.9 115.96-24.74 118.08-22.58 118.08-17.63L118.08-17.63 118.08 0 109.27 0 109.27-16.38Q109.27-17.9 108.94-18.63 108.61-19.36 107.97-19.59 107.34-19.82 106.41-19.82L106.41-19.82Q105.43-19.82 104.65-19.42 103.87-19.02 103.32-18.25 102.77-17.48 102.49-16.41 102.21-15.33 102.21-14.01L102.21-14.01ZM117.06-13.48L114.66-13.53Q114.64-17.46 115.74-20.47 116.84-23.49 119.07-25.2 121.3-26.9 124.65-26.9L124.65-26.9Q127.07-26.9 128.92-25.94 130.78-24.98 131.84-22.69 132.9-20.41 132.9-16.48L132.9-16.48 132.9 0 124.06 0 124.06-16.48Q124.06-17.92 123.72-18.63 123.38-19.34 122.76-19.58 122.13-19.82 121.23-19.82L121.23-19.82Q120.16-19.82 119.37-19.37 118.59-18.92 118.08-18.08 117.57-17.24 117.31-16.06 117.06-14.89 117.06-13.48L117.06-13.48ZM150.79-7.1L150.79-17.36Q150.79-18.82 150.17-19.69 149.55-20.56 148.03-20.56L148.03-20.56Q147.23-20.56 146.68-20.31 146.13-20.07 145.85-19.53 145.57-18.99 145.57-18.09L145.57-18.09 136.78-18.09Q136.78-20.68 138.22-22.66 139.66-24.63 142.3-25.77 144.93-26.9 148.5-26.9L148.5-26.9Q151.67-26.9 154.19-25.84 156.7-24.78 158.17-22.64 159.63-20.51 159.63-17.31L159.63-17.31 159.63-6.88Q159.63-4.03 159.94-2.73 160.24-1.44 160.78-0.44L160.78-0.44 160.78 0 151.99 0Q151.38-1.29 151.09-3.17 150.79-5.05 150.79-7.1L150.79-7.1ZM151.84-16.24L151.89-11.45 148.5-11.45Q146.42-11.45 145.69-10.33 144.96-9.2 144.96-7.96L144.96-7.96Q144.96-7.06 145.63-6.51 146.3-5.96 147.3-5.96L147.3-5.96Q148.55-5.96 149.41-6.41 150.28-6.86 150.72-7.47 151.16-8.08 151.09-8.54L151.09-8.54 152.97-4.86Q152.48-3.91 151.88-2.97 151.28-2.03 150.4-1.25 149.52-0.46 148.25 0.01 146.98 0.49 145.18 0.49L145.18 0.49Q142.76 0.49 140.7-0.51 138.63-1.51 137.39-3.32 136.14-5.13 136.14-7.52L136.14-7.52Q136.14-11.6 139.15-13.92 142.15-16.24 148.57-16.24L148.57-16.24 151.84-16.24ZM172.74-19.36L172.74 0 163.95 0 163.95-26.42 172.15-26.42 172.74-19.36ZM180.36-26.61L180.21-18.02Q179.7-18.07 178.83-18.14 177.96-18.21 177.43-18.21L177.43-18.21Q175.57-18.21 174.41-17.74 173.25-17.26 172.74-16.26 172.23-15.26 172.25-13.62L172.25-13.62 170.71-14.94Q170.71-18.53 171.62-21.23 172.52-23.93 174.17-25.42 175.82-26.9 178.04-26.9L178.04-26.9Q178.65-26.9 179.27-26.84 179.89-26.78 180.36-26.61L180.36-26.61ZM191.88-37.52L191.88 0 183.06 0 183.06-37.52 191.88-37.52ZM208.77-26.42L197.42-12.7 191.29-6.64 187.41-12.21 192.51-19.07 198.25-26.42 208.77-26.42ZM199.3 0L192.71-11.77 199.23-16.33 209.36 0 199.3 0ZM223.73 0.49L223.73 0.49Q219.34 0.49 216.25-1.29 213.16-3.08 211.55-5.99 209.94-8.91 209.94-12.3L209.94-12.3 209.94-13.21Q209.94-16.99 211.36-20.1 212.77-23.22 215.63-25.06 218.49-26.9 222.81-26.9L222.81-26.9Q226.64-26.9 229.35-25.33 232.06-23.75 233.51-20.84 234.97-17.92 234.97-13.87L234.97-13.87 234.97-10.18 213.24-10.18 213.24-15.82 226.37-15.82 226.37-16.53Q226.4-17.68 225.98-18.41 225.57-19.14 224.75-19.48 223.93-19.82 222.73-19.82L222.73-19.82Q221.02-19.82 220.17-18.87 219.32-17.92 219.02-16.42 218.73-14.92 218.73-13.21L218.73-13.21 218.73-12.3Q218.73-10.55 219.39-9.27 220.05-7.98 221.31-7.3 222.56-6.62 224.32-6.62L224.32-6.62Q225.93-6.62 227.56-7.18 229.18-7.74 230.3-9.16L230.3-9.16 234.26-4.1Q233.04-2.39 230.31-0.95 227.59 0.49 223.73 0.49ZM252.39-26.42L252.39-20.07 236.16-20.07 236.16-26.42 252.39-26.42ZM239.38-32.98L248.17-32.98 248.17-9.11Q248.17-8.18 248.39-7.65 248.61-7.13 249.18-6.91 249.76-6.69 250.76-6.69L250.76-6.69Q251.44-6.69 251.91-6.71 252.37-6.74 252.76-6.81L252.76-6.81 252.74-0.27Q251.61 0.12 250.47 0.31 249.32 0.49 247.95 0.49L247.95 0.49Q245.22 0.49 243.3-0.38 241.38-1.25 240.38-3.09 239.38-4.93 239.38-7.84L239.38-7.84 239.38-32.98Z" opacity="1" transform="matrix(1,0,0,1,0,0)" fill="#000000" class="wordmark-text-0" data-fill-palette-color="primary" id="text-0"></path></svg></g></svg></g></svg></g></svg></g></svg></g></svg></g></svg></g><path d="M181.447 98.971L181.447 36.147 6.54 36.147 6.54 211.053 181.447 211.053 181.447 148.229 178.087 148.229 178.087 207.693 9.9 207.693 9.9 39.507 178.087 39.507 178.087 98.971Z" fill="#000000" stroke="transparent" data-fill-palette-color="tertiary"></path></svg></g><defs></defs></svg><rect width="395.52" height="247.2" fill="none" stroke="none" visibility="hidden"></rect></g></svg></g></svg>